# xmcd
#
# Track frame offsets: 
#        150
#        12695
#        25730
#        38462
#        48135
#        58800
#        67382
#        75655
#        84000
#        94862
#        106475
#        120025
#        128087
#        137200
#        148412
#        156920
#        170310
#
# Disc length: 2371 seconds
#
# Revision: 0
# Processed by: cddbd v1.5.2PL0 Copyright (c) Steve Scherf et al.
# Submitted via: ExactAudioCopy v0.99pb3
#
DISCID=df094111
DTITLE=Raducano - Gipsy in Blue
DYEAR=1990
DGENRE=Blues
TTITLE0=So Del Duma Al Romsea
TTITLE1=Ec Phureoro Me Diclem
TTITLE2=Magdalena
TTITLE3=Maneaua Lui Kemal
TTITLE4=So Mai Chelel I Romni
TTITLE5=Aghes Si Abeau (Shalailai)
TTITLE6=Pala-i Romni Ni Mai Geau
TTITLE7=Merit Eu
TTITLE8=Phen Devla Sote Cherau
TTITLE9=Geau Po Drom Le Chan Ghereaco
TTITLE10=Sima Grast Naima Urdon
TTITLE11=Geampara Dans Dobrogean
TTITLE12=Nimai Mistimos Cherdem
TTITLE13=Ni Sem Ucio Sem Urdo
TTITLE14=Ceaoraia Bahtalea
TTITLE15=Hora Moldovenilor
TTITLE16=Hora Lui Bosoi
EXTD=
EXTT0=
EXTT1=
EXTT2=
EXTT3=
EXTT4=
EXTT5=
EXTT6=
EXTT7=
EXTT8=
EXTT9=
EXTT10=
EXTT11=
EXTT12=
EXTT13=
EXTT14=
EXTT15=
EXTT16=
PLAYORDER=
